HIERARCHY
ROOT Hips
{
	OFFSET 0.00000 0.00000 0.00000
	CHANNELS 6 Xposition Yposition Zposition Zrotation Yrotation Xrotation 
	JOINT LHipJoint
	{
		OFFSET 0 0 0
		CHANNELS 3 Zrotation Yrotation Xrotation
		JOINT LeftUpLeg
		{
			OFFSET 3.13874 -1.57224 1.49786
			CHANNELS 3 Zrotation Yrotation Xrotation
			JOINT LeftLeg
			{
				OFFSET 2.10955 -5.79594 0.00000
				CHANNELS 3 Zrotation Yrotation Xrotation
				JOINT LeftFoot
				{
					OFFSET 2.41843 -6.64458 0.00000
					CHANNELS 3 Zrotation Yrotation Xrotation
					JOINT LeftToeBase
					{
						OFFSET 0.04713 -0.12948 1.66229
						CHANNELS 3 Zrotation Yrotation Xrotation
						End Site
						{
							OFFSET 0.00000 -0.00000 0.85167
						}
					}
				}
			}
		}
	}
	JOINT RHipJoint
	{
		OFFSET 0 0 0
		CHANNELS 3 Zrotation Yrotation Xrotation
		JOINT RightUpLeg
		{
			OFFSET -3.13988 -1.57224 1.49786
			CHANNELS 3 Zrotation Yrotation Xrotation
			JOINT RightLeg
			{
				OFFSET -2.15006 -5.90725 0.00000
				CHANNELS 3 Zrotation Yrotation Xrotation
				JOINT RightFoot
				{
					OFFSET -2.34496 -6.44273 0.00000
					CHANNELS 3 Zrotation Yrotation Xrotation
					JOINT RightToeBase
					{
						OFFSET -0.08699 -0.23900 1.55223
						CHANNELS 3 Zrotation Yrotation Xrotation
						End Site
						{
							OFFSET -0.00000 -0.00000 0.80281
						}
					}
				}
			}
		}
	}
	JOINT LowerBack
	{
		OFFSET 0 0 0
		CHANNELS 3 Zrotation Yrotation Xrotation
		JOINT Spine
		{
			OFFSET 0.01292 1.96517 -0.16495
			CHANNELS 3 Zrotation Yrotation Xrotation
			JOINT Spine1
			{
				OFFSET 0.02122 1.88666 0.19706
				CHANNELS 3 Zrotation Yrotation Xrotation
				JOINT Neck
				{
					OFFSET 0 0 0
					CHANNELS 3 Zrotation Yrotation Xrotation
					JOINT Neck1
					{
						OFFSET -0.01683 1.81591 0.07903
						CHANNELS 3 Zrotation Yrotation Xrotation
						JOINT Head
						{
							OFFSET 0.00815 1.74013 -0.47700
							CHANNELS 3 Zrotation Yrotation Xrotation
							End Site
							{
								OFFSET -0.00204 1.83225 -0.16933
							}
						}
					}
				}
				JOINT LeftShoulder
				{
					OFFSET 0 0 0
					CHANNELS 3 Zrotation Yrotation Xrotation
					JOINT LeftArm
					{
						OFFSET 3.38482 1.41533 0.19802
						CHANNELS 3 Zrotation Yrotation Xrotation
						JOINT LeftForeArm
						{
							OFFSET 4.32712 -0.00000 0.00000
							CHANNELS 3 Zrotation Yrotation Xrotation
							JOINT LeftHand
							{
								OFFSET 3.28587 -0.00000 -0.00000
								CHANNELS 3 Zrotation Yrotation Xrotation
								JOINT LeftFingerBase
								{
									OFFSET 0 0 0
									CHANNELS 3 Zrotation Yrotation Xrotation
									JOINT LeftHandIndex1
									{
										OFFSET 0.43316 -0.00000 -0.00000
										CHANNELS 3 Zrotation Yrotation Xrotation
										End Site
										{
											OFFSET 0.34922 -0.00000 -0.00000
										}
									}
								}
								JOINT LThumb
								{
									OFFSET 0 0 0
									CHANNELS 3 Zrotation Yrotation Xrotation
									End Site
									{
										OFFSET 0.35456 -0.00000 0.35456
									}
								}
							}
						}
					}
				}
				JOINT RightShoulder
				{
					OFFSET 0 0 0
					CHANNELS 3 Zrotation Yrotation Xrotation
					JOINT RightArm
					{
						OFFSET -3.09725 1.62858 -0.14144
						CHANNELS 3 Zrotation Yrotation Xrotation
						JOINT RightForeArm
						{
							OFFSET -4.29104 -0.00000 0.00000
							CHANNELS 3 Zrotation Yrotation Xrotation
							JOINT RightHand
							{
								OFFSET -3.22720 -0.00000 -0.00000
								CHANNELS 3 Zrotation Yrotation Xrotation
								JOINT RightFingerBase
								{
									OFFSET 0 0 0
									CHANNELS 3 Zrotation Yrotation Xrotation
									JOINT RightHandIndex1
									{
										OFFSET -0.54362 -0.00000 -0.00000
										CHANNELS 3 Zrotation Yrotation Xrotation
										End Site
										{
											OFFSET -0.43828 -0.00000 -0.00000
										}
									}
								}
								JOINT RThumb
								{
									OFFSET 0 0 0
									CHANNELS 3 Zrotation Yrotation Xrotation
									End Site
									{
										OFFSET -0.44497 -0.00000 0.44497
									}
								}
							}
						}
					}
				}
			}
		}
	}
}
MOTION
Frames: 9
Frame Time: .0083333
-3.1636 16.0145 2.1516 -131.6270 -77.7520 145.1900 0.0000 0.0000 0.0000 -14.2089 -24.5644 -17.7967 0.3280 3.6808 10.1802 0.7746 11.5493 -24.5289 10.0392 -17.4318 -59.6192 0.0000 0.0000 0.0000 30.6875 -0.9339 -2.7697 -1.8876 -8.6279 24.6380 -0.2694 -4.6896 -12.6655 -0.7310 5.4625 -15.2324 2.6110 1.9512 8.4816 2.2270 3.1193 -8.2252 0.3855 1.2753 -13.8031 -1.1224 4.1263 -12.8773 -5.1733 5.5017 50.3839 -2.1796 -0.1220 24.9131 -0.0000 0.0000 0.0000 -86.0688 8.0081 26.4076 12.1722 -20.0623 -2.1610 -0.0000 -0.0000 10.1998 28.3773 33.4093 16.5644 -7.1250 0.0000 -0.0000 -5.5280 66.7611 -2.9021 -0.0000 0.0000 0.0000 65.5672 -7.0680 68.0030 -14.1594 22.9621 -2.8900 0.0000 -0.0000 -13.2479 -18.1253 -25.8516 8.1231 7.1250 -0.0000 -0.0000 12.8021 -56.5327 -3.6614
-3.2956 16.0150 2.1896 -133.6090 -77.7417 146.9390 0.0000 0.0000 0.0000 -15.1873 -24.1481 -16.8247 0.3149 3.6071 9.9739 0.8186 11.3559 -24.7113 9.9782 -17.3976 -59.4153 0.0000 0.0000 0.0000 29.7681 -0.9420 -4.1734 -2.3552 -9.5698 27.5945 -0.1569 -5.6008 -11.5670 -0.9549 6.2227 -17.4319 1.9060 2.0011 8.5372 2.2346 3.0868 -8.3656 0.7927 1.3263 -14.0431 -0.6042 4.1033 -12.0177 -5.5743 5.3684 50.2122 -2.5282 -0.1068 24.3842 -0.0000 -0.0000 0.0000 -85.8608 8.1118 29.1589 12.6464 -20.7670 -2.3264 -0.0000 -0.0000 8.9011 28.3407 33.3378 16.5108 -7.1250 0.0000 -0.0000 -5.5247 66.6768 -2.8897 -0.0000 -0.0000 0.0000 65.4579 -6.5169 67.4340 -14.4808 23.4178 -3.0165 0.0000 -0.0000 -12.6185 -20.2605 -24.8188 8.8074 7.1250 -0.0000 -0.0000 10.0720 -55.9374 -2.7223
-3.4322 16.0038 2.2237 -136.3240 -77.8414 149.3720 0.0000 0.0000 0.0000 -16.4855 -23.6142 -15.7841 0.2997 3.5201 9.7304 0.9379 10.5695 -24.9742 9.7635 -17.2747 -58.6949 0.0000 0.0000 0.0000 28.7136 -0.8736 -5.4094 -2.8013 -10.3663 30.1712 -0.1594 -6.9254 -13.0115 -0.9033 6.0569 -16.9496 1.4203 1.9523 8.6039 2.1213 2.9426 -8.1880 0.9653 1.3064 -13.8905 -1.1171 4.1731 -12.6182 -5.0913 5.5060 50.2720 -2.1178 -0.1136 24.6471 0.0000 -0.0000 0.0000 -85.5957 7.3674 31.5756 13.0835 -21.4094 -2.4837 -0.0000 -0.0000 7.9207 28.3574 32.6669 16.2422 -7.1250 0.0000 -0.0000 -5.0345 65.9917 -2.5534 0.0000 -0.0000 0.0000 65.2566 -5.0143 67.3124 -15.0013 24.1479 -3.2265 0.0000 -0.0000 -13.2093 -21.0989 -25.2539 9.3478 7.1250 -0.0000 -0.0000 9.3885 -56.5546 -2.6759
-3.5614 15.9841 2.2559 -138.3920 -77.8946 151.1760 0.0000 0.0000 0.0000 -17.5878 -22.9962 -15.0022 0.2983 3.5119 9.7074 1.0029 9.9799 -24.9937 9.6484 -17.2073 -58.3065 0.0000 0.0000 0.0000 27.9368 -0.6097 -6.5471 -3.2032 -11.0169 32.3369 -0.1571 -9.3086 -15.7181 -1.1358 6.7683 -19.0308 0.8569 1.9667 8.5375 2.0381 2.8678 -8.2135 1.2055 1.3227 -13.9021 -0.9088 4.2345 -12.4705 -5.0850 5.4800 50.3829 -2.1779 -0.0928 24.7163 0.0000 0.0000 0.0000 -85.1189 6.9908 34.3975 13.5239 -22.0500 -2.6467 -0.0000 -0.0000 7.0125 28.7550 32.0010 16.2140 -7.1250 0.0000 -0.0000 -4.0870 65.4173 -2.0179 0.0000 0.0000 0.0000 65.2581 -4.0599 66.7293 -15.4891 24.8231 -3.4287 0.0000 -0.0000 -13.4499 -21.4033 -25.0882 9.4361 7.1250 -0.0000 -0.0000 8.9913 -56.4496 -2.5385
-3.6819 15.9630 2.2868 -140.3160 -78.0526 152.8110 0.0000 0.0000 0.0000 -18.7044 -22.5651 -14.2942 0.3047 3.5490 9.8112 0.9925 9.9827 -24.9129 9.7172 -17.2477 -58.5389 0.0000 0.0000 0.0000 27.2071 -0.2403 -7.4521 -3.5072 -11.4741 33.8960 -0.2889 -11.3776 -19.7632 -1.1140 6.7054 -18.8455 0.5661 1.8861 8.5886 1.9119 2.7064 -8.0779 1.2598 1.2714 -13.7766 -1.0861 4.3129 -12.8401 -4.9228 5.6362 50.4182 -2.0172 -0.0612 24.9130 -0.0000 -0.0000 0.0000 -84.7137 5.9916 36.7816 13.8423 -22.5087 -2.7674 -0.0000 -0.0000 6.4264 29.3779 31.5592 16.4172 -7.1250 0.0000 -0.0000 -3.0151 65.1347 -1.4684 -0.0000 -0.0000 0.0000 65.3039 -2.7484 65.9836 -15.9337 25.4307 -3.6174 0.0000 -0.0000 -13.6923 -22.2749 -23.8666 9.4103 7.1250 -0.0000 -0.0000 7.5586 -55.3740 -1.9329
-3.7995 15.9423 2.3112 -142.9590 -78.3030 155.1780 0.0000 0.0000 0.0000 -19.9979 -22.1999 -13.5678 0.3080 3.5678 9.8638 1.0082 9.8054 -24.8912 9.7638 -17.2749 -58.6961 0.0000 0.0000 0.0000 26.3499 0.3007 -8.2517 -3.7021 -11.7530 34.8638 -0.5676 -12.8469 -24.0729 -0.7027 5.3581 -14.9327 -0.1874 1.8788 8.5774 1.7810 2.5690 -8.1665 1.5659 1.2729 -13.9016 -0.7478 4.2691 -12.2377 -5.1649 5.4775 50.3340 -2.2558 -0.0773 24.5712 0.0000 -0.0000 0.0000 -84.3192 5.3691 39.0132 14.1626 -22.9667 -2.8913 -0.0000 -0.0000 6.1226 29.8780 30.9453 16.4585 -7.1250 0.0000 -0.0000 -2.0279 64.6314 -0.9637 0.0000 -0.0000 0.0000 65.5282 -2.1982 64.8244 -16.4761 26.1619 -3.8535 0.0000 -0.0000 -13.9499 -23.0088 -23.4350 9.5862 7.1250 -0.0000 -0.0000 6.6238 -55.0750 -1.6440
-3.9144 15.9222 2.3285 -145.1010 -78.4360 157.0510 0.0000 0.0000 0.0000 -21.0746 -21.7801 -12.8914 0.3141 3.6029 9.9620 1.0503 9.4698 -24.9539 9.7301 -17.2553 -58.5826 0.0000 0.0000 0.0000 25.7721 1.0442 -8.8479 -3.7550 -11.8270 35.1226 -0.9266 -13.7927 -27.8652 -0.3480 3.7901 -10.4869 -0.8777 1.9038 8.5365 1.6795 2.4852 -8.2820 1.8592 1.2957 -14.0403 -0.4073 4.2390 -11.5856 -5.2827 5.2796 50.2977 -2.4307 -0.0974 24.2473 -0.0000 -0.0000 0.0000 -83.9156 4.6994 40.9582 14.4367 -23.3555 -2.9990 -0.0000 -0.0000 6.0453 29.7348 30.7838 16.2957 -7.1250 0.0000 -0.0000 -2.1268 64.4207 -1.0003 -0.0000 -0.0000 0.0000 65.9200 -1.8285 63.6122 -17.0750 26.9565 -4.1213 0.0000 -0.0000 -14.4349 -23.8121 -23.6146 10.0251 7.1250 -0.0000 -0.0000 5.8447 -55.4266 -1.4996
-4.0263 15.9083 2.3467 -145.3970 -78.4565 157.0130 0.0000 0.0000 0.0000 -21.6981 -21.3863 -12.1731 0.3217 3.6455 10.0815 1.1115 9.1157 -25.1582 9.6622 -17.2155 -58.3534 0.0000 0.0000 0.0000 25.6962 1.7572 -9.1134 -3.6547 -11.6861 34.6305 -1.3831 -13.7091 -30.8869 -0.1117 2.1548 -5.9338 -0.7557 1.8222 8.6091 1.6074 2.3910 -8.1022 1.7281 1.2364 -13.8571 -0.5986 4.2951 -11.9315 -5.0736 5.3737 50.3465 -2.2565 -0.0829 24.4309 -0.0000 -0.0000 0.0000 -83.6245 3.3184 42.1514 14.6243 -23.6201 -3.0738 -0.0000 -0.0000 6.2205 29.5351 31.0473 16.2890 -7.1250 0.0000 -0.0000 -2.5245 64.6420 -1.2005 -0.0000 -0.0000 0.0000 66.2549 -0.7314 63.0968 -17.6013 27.6436 -4.3627 0.0000 -0.0000 -15.5668 -24.8197 -23.5024 10.4497 7.1250 -0.0000 -0.0000 4.7363 -55.5172 -1.2246
-4.1314 15.8996 2.3603 -145.2980 -78.5389 156.6300 0.0000 0.0000 0.0000 -22.1757 -21.0877 -11.4709 0.3212 3.6429 10.0741 1.1538 8.8573 -25.2904 9.6414 -17.2032 -58.2830 0.0000 0.0000 0.0000 25.7111 2.4337 -9.4563 -3.4739 -11.4253 33.7280 -1.7795 -13.2323 -32.9174 -0.0312 1.1395 -3.1326 -0.9781 1.8138 8.5838 1.6080 2.3461 -8.1162 1.8636 1.2374 -13.8672 -0.3602 4.1749 -11.5289 -5.0802 5.0433 50.3097 -2.3734 -0.1552 24.1921 -0.0000 -0.0000 0.0000 -83.4949 2.3530 42.9773 14.8680 -23.9619 -3.1721 -0.0000 -0.0000 6.5752 29.8601 31.6005 16.7426 -7.1250 0.0000 -0.0000 -2.4108 65.3162 -1.1841 -0.0000 -0.0000 0.0000 66.6270 -0.3494 62.4447 -18.1556 28.3560 -4.6229 0.0000 -0.0000 -16.2486 -24.9677 -23.5699 10.5470 7.1250 -0.0000 -0.0000 4.6019 -55.6195 -1.2012
